<?xml version="1.0" encoding="UTF-8" standalone="no"?>
<!-- Created with Inkscape (http://www.inkscape.org/) -->

<svg
   width="1167"
   height="350"
   viewBox="0 0 308.76874 92.604165"
   version="1.1"
   id="svg1"
   xml:space="preserve"
   xmlns="http://www.w3.org/2000/svg"
   xmlns:svg="http://www.w3.org/2000/svg"><defs
     id="defs1" /><path
     style="display:inline;fill:#f4f3f0;fill-opacity:1"
     d="m 19.391624,78.076639 c -0.087,-0.21835 -0.628558,-1.771206 -1.203468,-3.450791 -0.57491,-1.679585 -2.173042,-5.609883 -3.551405,-8.733997 -3.044498,-6.900473 -3.458364,-8.213359 -3.459228,-10.973537 -5.84e-4,-1.865617 0.09876,-2.306119 0.835638,-3.705332 0.4696,-0.891694 1.798554,-2.588141 3.030824,-3.868931 1.217701,-1.265649 2.749184,-3.217174 3.440622,-4.38429 3.110401,-5.250216 6.854275,-9.613225 8.246959,-9.610783 0.801245,0.0014 2.101835,0.856897 2.984488,1.963114 0.415681,0.520967 0.823788,0.947216 0.906906,0.947221 0.08312,4e-6 0.170839,-0.715388 0.194938,-1.58976 0.04607,-1.671497 0.84625,-3.675184 1.818518,-4.553636 0.908283,-0.820641 2.406836,-1.267307 4.245085,-1.265313 1.742038,0.0019 2.644492,0.201797 11.80405,2.614762 1.720245,0.453176 3.566295,0.835828 4.102332,0.850338 0.536038,0.01451 1.227989,0.103835 1.53767,0.1985 0.543308,0.166081 0.524233,0.235659 -0.543868,1.98379 -0.91254,1.493529 -1.313519,1.897645 -2.283389,2.301248 -0.647056,0.269267 -3.74494,1.5643 -6.884187,2.877853 -5.782112,2.419404 -8.234901,3.187894 -10.197407,3.194978 -1.426016,0.0051 -3.684681,-1.446912 -6.61324,-4.251544 -1.204049,-1.153098 -2.322419,-2.096542 -2.485266,-2.096542 -0.537632,0 -1.443615,1.147553 -3.809635,4.825431 l -2.33807,3.634432 1.441103,1.317087 c 1.714175,1.566659 2.714623,3.585387 3.100733,6.25673 0.41941,2.901735 0.398596,3.022313 -0.521706,3.022313 -1.999296,0 -4.853514,-2.229422 -5.999212,-4.685969 -0.615231,-1.319148 -0.672768,-1.366133 -1.355198,-1.106673 -2.064676,0.784988 -3.494035,2.870486 -3.494035,5.097951 0,0.978653 0.47497,2.375546 2.153883,6.334602 3.249181,7.661911 4.100507,10.098725 4.721126,13.513629 0.514678,2.831973 0.596641,4.40278 0.174439,3.343119 z M 39.488696,38.533615 c 2.958772,-1.069603 7.973593,-3.54056 7.524803,-3.707702 -1.763321,-0.65671 -9.419322,-2.265832 -10.793664,-2.268589 -2.902418,-0.0058 -4.292332,0.984957 -4.292332,3.059726 0,1.597967 0.487904,2.739473 1.424077,3.331787 1.088094,0.688434 3.543737,0.522291 6.137116,-0.415222 z m -16.77833,30.412027 c -1.094561,-5.92461 -1.009793,-6.254702 1.87264,-7.292122 1.117062,-0.402044 1.245792,-0.664146 0.450207,-0.916654 -0.324724,-0.103064 -0.817066,0.0079 -1.227171,0.276633 l -0.68488,0.44875 0.184408,-0.757635 c 0.101424,-0.416699 0.519775,-1.097868 0.929669,-1.513709 0.617614,-0.626575 0.884256,-0.725546 1.556769,-0.577837 1.063814,0.233652 2.959496,1.617677 2.959496,2.160708 0,0.710908 -1.966722,2.481535 -2.756362,2.481535 -0.90446,0 -2.299836,0.585639 -2.782746,1.167918 -0.328637,0.396262 -0.317208,0.825832 0.08735,3.283163 0.256004,1.554988 0.426153,3.54185 0.37811,4.415249 -0.08126,1.477253 -0.148733,1.255761 -0.967492,-3.175999 z m 36.610129,-0.547056 c -3.874336,-2.007737 -4.761744,-6.749459 -2.497498,-13.344991 0.425328,-1.238937 0.774187,-2.407432 0.775244,-2.596655 0.0014,-0.251753 -0.406304,-0.322749 -1.519912,-0.264666 l -1.521833,0.07937 -0.15845,2.787733 c -0.08715,1.533253 -0.285324,3.022002 -0.440391,3.308332 -0.416822,0.76966 -1.37481,1.603285 -5.614319,4.885485 -4.359973,3.375463 -6.134154,4.368509 -8.479662,4.746242 -3.238565,0.521555 -5.416419,-0.548896 -6.777763,-3.331383 -1.134327,-2.318482 -1.157963,-4.761851 -0.09559,-9.882076 0.511065,-2.463142 0.912392,-5.318506 1.004383,-7.145998 0.100771,-2.001907 0.21544,-2.771902 0.335025,-2.249666 0.368366,1.608689 0.229671,5.319089 -0.315487,8.439928 -0.987916,5.655483 -0.740869,8.163543 0.950388,9.648486 1.223532,1.074276 2.55329,1.464755 4.292169,1.260384 3.159522,-0.371339 6.148823,-2.141721 11.170629,-6.615686 2.162725,-1.926788 2.938071,-2.781455 2.938071,-3.23865 0,-0.341606 -0.647502,-1.993837 -1.438892,-3.671625 -0.791391,-1.677788 -1.515474,-3.291812 -1.609074,-3.58672 -0.162212,-0.511083 0.850369,-3.444652 1.177835,-3.412331 0.08239,0.0081 0.745298,0.866285 1.473131,1.907008 0.727833,1.040723 1.725624,2.125819 2.217313,2.411325 1.836886,1.066614 4.313307,0.435243 4.914544,-1.252977 0.3488,-0.9794 -0.84061,-10.310351 -2.669863,-20.945135 -0.80123,-4.658132 -1.453984,-8.783344 -1.450565,-9.167139 0.0034,-0.383794 0.165513,-1.088202 0.36021,-1.56535 l 0.353994,-0.867542 1.123654,1.89139 c 1.361408,2.29159 2.726499,5.13241 2.550725,5.308183 -0.07051,0.07051 -0.493389,-0.14181 -0.939741,-0.471813 -0.446353,-0.330003 -0.856729,-0.554826 -0.911947,-0.499608 -0.05522,0.05522 0.07417,1.16738 0.287524,2.471471 1.073059,6.558816 2.794998,19.798866 2.790365,21.455205 -0.0096,3.447657 -0.566319,4.982916 -2.436938,6.720861 -1.961084,1.821993 -3.213998,7.35719 -2.241643,9.903264 0.558479,1.462355 2.188564,2.976102 3.462111,3.21502 2.39921,0.450095 4.868469,-0.389713 7.759435,-2.639024 0.827649,-0.643952 3.410416,-2.978262 5.739482,-5.187358 3.748821,-3.555719 8.871045,-7.870354 13.03483,-10.979711 0.764224,-0.570694 1.385159,-1.102478 1.379854,-1.181741 -0.0053,-0.07926 -0.45193,-0.478561 -0.9925,-0.88733 -1.60875,-1.216506 -3.492354,-3.11356 -3.964267,-3.992573 -0.628994,-1.171602 -0.605157,-4.010741 0.04271,-5.087168 0.908172,-1.508921 1.535845,-1.690039 5.856903,-1.690039 4.82969,0 8.803441,0.575209 18.321881,2.652131 l 1.39009,0.303317 -1.34588,1.946892 c -0.74024,1.07079 -1.63788,2.138211 -1.99476,2.372046 -0.35687,0.233835 -1.81566,0.831288 -3.24173,1.327673 -3.576473,1.244888 -9.034138,3.573596 -9.034138,3.854737 0,0.127536 0.41685,1.752689 0.926333,3.611452 0.509483,1.858763 0.926333,3.523998 0.926333,3.700521 0,0.230656 -0.390914,0.276814 -1.389499,0.164067 -1.573225,-0.177628 -2.573275,-0.612441 -3.392821,-1.47517 -0.499609,-0.525933 -0.54497,-0.793846 -0.402828,-2.379172 0.0881,-0.982575 0.07739,-1.786499 -0.02379,-1.786499 -0.362112,0 -1.876573,1.165698 -2.21189,1.702517 -0.187972,0.300932 -0.730633,2.71043 -1.205912,5.354441 -0.790864,4.399633 -0.835685,4.929715 -0.528552,6.250961 0.184576,0.794018 0.593907,1.806438 0.909625,2.249823 0.690001,0.969018 2.525672,1.910252 3.725528,1.910252 2.247407,0 5.904169,-1.454337 8.378852,-3.332368 2.587519,-1.963666 6.748159,-5.786986 6.883239,-6.325199 0.13946,-0.555652 -1.31679,-4.27886 -2.28859,-5.851273 -0.3002,-0.485725 -0.51337,-1.304405 -0.51337,-1.971603 0,-1.163866 0.4892,-2.898884 0.81736,-2.898884 0.0999,0 0.86656,0.847656 1.70363,1.883679 2.30481,2.852615 4.17049,3.450715 6.44646,2.066612 0.71795,-0.436611 0.82466,-0.648566 0.82093,-1.630568 -0.006,-1.572881 -1.58866,-12.893288 -3.06915,-21.952552 -1.13239,-6.929127 -1.21096,-7.695901 -0.90179,-8.800164 0.18628,-0.665314 0.41254,-1.209518 0.50279,-1.209341 0.28087,5.5e-4 3.57464,6.867032 3.385,7.056666 -0.0986,0.09862 -0.47613,-0.09952 -0.83889,-0.440324 -0.36277,-0.340803 -0.70651,-0.569547 -0.76387,-0.508321 -0.0573,0.06123 0.60734,4.69667 1.47709,10.300985 1.85404,11.946648 2.01819,14.752876 1.014,17.33566 -0.69293,1.782212 -2.26387,3.548956 -3.21792,3.619014 -0.34465,0.02531 -1.22214,0.05508 -1.94997,0.06617 l -1.32333,0.02015 -0.13234,2.646666 c -0.16637,3.327471 -0.65514,4.240466 -3.89074,7.267724 -4.257433,3.983289 -7.66923,5.815552 -11.242235,6.037504 -1.712104,0.106354 -2.219149,0.03562 -3.220914,-0.449326 -0.653911,-0.316553 -1.513027,-1.000464 -1.909146,-1.519803 -2.086541,-2.735596 -2.300148,-6.118165 -0.807623,-12.789091 0.504482,-2.254812 0.892092,-4.124806 0.861354,-4.155544 -0.05814,-0.05814 -4.464592,4.033805 -11.837982,10.993033 -4.749531,4.482749 -7.09423,6.277774 -9.951182,7.618295 -2.164117,1.015433 -4.381848,1.198833 -5.773845,0.47748 z m 33.64589,-25.948678 c 1.392956,-0.618856 7.086345,-2.909082 8.436095,-3.393509 0.47553,-0.170667 0.44362,-0.226301 -0.31393,-0.547312 -0.46379,-0.196533 -2.071643,-0.676436 -3.572998,-1.06645 -4.204843,-1.092312 -13.036104,-1.230197 -13.376553,-0.208852 -0.107137,0.321411 6.461728,5.872759 6.97472,5.894336 0.163846,0.0069 0.997545,-0.298304 1.852666,-0.678213 z M 78.244156,68.283976 c -0.633341,-0.633341 -0.672769,-1.644242 -0.124715,-3.197591 0.398215,-1.128662 1.963576,-3.785767 2.131408,-3.617935 0.04726,0.04726 -0.206258,0.890909 -0.563381,1.874769 -0.774323,2.133238 -0.786092,2.3312 -0.182881,3.076135 0.397029,0.490309 0.574244,0.535028 1.191,0.300538 0.626968,-0.238373 0.724568,-0.209869 0.724568,0.211609 0,0.2679 -0.246844,0.800902 -0.548543,1.184449 -0.671131,0.853205 -1.865873,0.929609 -2.627456,0.168026 z m 50.968364,-1.32394 c -0.42567,-0.873066 -0.81693,-1.587392 -0.86947,-1.587392 -0.0525,0 -0.39397,0.195544 -0.75873,0.434543 -0.95023,0.622617 -1.87998,0.154657 -2.10804,-1.06102 -0.21635,-1.153229 0.0273,-1.939553 0.7151,-2.307641 0.94753,-0.507102 1.72513,-0.05888 2.78684,1.60638 0.55454,0.869779 1.06879,1.583889 1.14279,1.586911 0.074,0.003 0.39942,-1.019185 0.72318,-2.271569 0.7147,-2.764688 1.45795,-4.074935 2.31155,-4.074935 0.68734,0 0.93475,0.44609 0.92945,1.675812 -0.006,1.479869 -0.26759,2.063115 -0.8423,1.88071 -0.88926,-0.282242 -1.73161,0.09901 -2.01502,0.912015 -0.14695,0.421518 -0.41339,1.672786 -0.5921,2.780595 -0.1787,1.107809 -0.39791,2.013924 -0.48711,2.01359 -0.0892,-3.34e-4 -0.51046,-0.714934 -0.93614,-1.587999 z m 22.48985,0.825573 c 0.13829,-0.128535 1.14855,-0.87291 2.24503,-1.654166 3.84094,-2.736714 5.17315,-3.921778 6.09114,-5.418353 0.50266,-0.819462 1.1819,-1.803472 1.50942,-2.186687 l 0.5955,-0.696757 0.66167,0.742592 c 0.71749,0.805238 0.80708,1.354815 0.39679,2.433948 -0.1856,0.488176 -0.40342,0.655506 -0.72783,0.559131 -1.83461,-0.54502 -1.82287,-0.548947 -2.80825,0.939197 -1.23008,1.8577 -1.66147,2.331982 -3.1649,3.479574 -1.2877,0.982927 -5.7001,2.639466 -4.79857,1.801521 z m -47.12389,-0.288401 c 0.29113,-0.138986 1.69642,-0.681045 3.12286,-1.204577 2.91358,-1.069342 5.32526,-2.3962 6.8359,-3.760973 0.95065,-0.858857 0.99128,-0.955211 0.62388,-1.479735 -0.21613,-0.308582 -0.39298,-0.783062 -0.39298,-1.0544 0,-0.535313 1.53879,-2.829543 1.89783,-2.829543 0.12105,0 0.69301,0.487309 1.27102,1.082909 1.1603,1.195607 1.56203,2.489246 1.06274,3.422185 -0.27996,0.523095 -0.46193,0.573574 -1.58727,0.440295 -1.24515,-0.14747 -1.28498,-0.129509 -1.95385,0.881233 -0.97725,1.476716 -3.28669,3.118542 -5.37507,3.821234 -1.78839,0.601753 -6.58078,1.194916 -5.50506,0.681372 z m 12.307,-7.832731 c 0,-0.58246 -0.085,-0.65336 -0.5955,-0.496454 -0.86711,0.266535 -0.91736,0.382808 -0.346,0.800595 0.73307,0.536031 0.9415,0.468699 0.9415,-0.304141 z m 128.62796,8.024234 c 0,-0.07923 1.04212,-0.289095 2.31583,-0.466359 3.31937,-0.461962 6.39777,-1.554165 11.97616,-4.249094 2.69299,-1.300982 5.14793,-2.36524 5.45544,-2.365017 0.30751,2.22e-4 1.00871,0.357704 1.55823,0.794404 0.54951,0.4367 1.15578,0.794 1.34725,0.794 0.19148,0 0.73871,-0.486011 1.21607,-1.080024 l 0.86793,-1.080024 0.58023,0.674554 0.58022,0.674554 0.81398,-0.927072 0.81398,-0.927073 -9.9e-4,1.001709 c -0.001,1.317062 -0.85633,2.722042 -1.65656,2.722042 -0.33367,0 -0.88073,-0.191962 -1.2157,-0.426582 -0.57498,-0.402734 -0.64855,-0.390107 -1.31605,0.225869 -1.02748,0.948167 -1.41827,1.007537 -2.71717,0.412807 -0.64122,-0.293595 -1.47044,-0.529591 -1.8427,-0.524436 -0.37226,0.0052 -2.75426,0.838761 -5.29333,1.852459 -2.53907,1.013697 -5.4556,2.030549 -6.48119,2.25967 -1.92305,0.429622 -7.00163,0.889208 -7.00163,0.633613 z M 143.96411,64.739903 c -1.27549,-1.073258 -1.70816,-2.485679 -1.64968,-5.385273 l 0.0503,-2.493341 -1.71089,-0.04515 c -2.19941,-0.05805 -3.30582,-0.838551 -4.38956,-3.096561 l -0.76282,-1.589356 -0.43953,1.580923 c -0.47568,1.710922 -1.60115,3.220556 -2.90282,3.893679 -0.43586,0.22539 -1.46031,0.421297 -2.27655,0.435348 -2.1231,0.03655 -3.08612,-0.54984 -3.92992,-2.392943 -0.76738,-1.676176 -0.85527,-3.092767 -0.48859,-7.874908 0.31608,-4.122281 -0.12292,-3.425487 -1.68559,2.67541 -0.70437,2.749956 -1.40447,5.315426 -1.55578,5.701045 -0.56331,1.43557 -2.24766,1.991406 -3.18727,1.051796 -0.51028,-0.510281 -1.72217,-3.882823 -2.03597,-5.665862 -0.21411,-1.216584 0.12164,-7.070722 0.40553,-7.070722 0.11143,0 0.25937,1.756725 0.32877,3.903832 0.095,2.937658 0.23554,4.114776 0.56804,4.756153 0.75598,1.458259 2.23989,1.864968 2.92559,0.801845 0.21125,-0.327525 0.85739,-2.262899 1.43587,-4.300831 0.57847,-2.037933 1.29422,-4.263649 1.59055,-4.946037 0.52554,-1.210239 2.42506,-3.390961 2.95369,-3.390961 0.33244,0 0.33205,0.01141 -0.12961,3.837666 -0.69271,5.741149 -0.45462,7.977056 0.95455,8.964073 1.24713,0.873529 4.07222,0.306366 5.31401,-1.066839 0.63665,-0.704023 1.52349,-2.747957 1.53173,-3.530236 0.004,-0.363916 -0.3116,-2.303907 -0.70095,-4.31109 -0.69609,-3.588397 -0.70028,-3.673696 -0.25039,-5.100909 0.25165,-0.798317 0.55601,-1.390626 0.67637,-1.316244 0.32201,0.199018 1.27667,4.361546 1.73206,7.552244 0.6988,4.896103 2.36102,7.410664 4.89873,7.410664 0.97649,0 2.32152,-0.713207 2.51911,-1.335773 0.0746,-0.234985 -0.34577,-1.469181 -0.93412,-2.742659 -1.65134,-3.574316 -3.00928,-8.347567 -2.79028,-9.807992 0.0979,-0.652978 0.28285,-1.252009 0.41095,-1.331181 0.36107,-0.223154 2.64784,3.315832 2.64784,4.097778 0,0.200917 -0.17098,0.195619 -0.56947,-0.01765 -0.46099,-0.246716 -0.53952,-0.235887 -0.41229,0.05685 1.12246,2.582566 2.34957,6.100002 2.5975,7.44552 0.39833,2.161835 0.15236,3.753684 -0.87715,5.676714 -0.45092,0.842262 -0.91602,1.948234 -1.03358,2.457717 -0.45594,1.976115 0.77884,3.969999 2.45856,3.969999 1.46713,0 2.95326,-1.060976 6.04109,-4.312851 7.49937,-7.897773 8.38307,-8.657727 10.05733,-8.649009 0.50949,0.0027 1.43968,0.237794 2.0671,0.522536 l 1.14077,0.517713 0.40888,-0.986692 c 0.22489,-0.542681 0.44573,-1.026133 0.49077,-1.074338 0.045,-0.04821 0.74226,0.450239 1.54939,1.107655 3.84654,3.133051 13.68687,6.205054 25.04442,7.818493 20.02082,2.844133 40.39978,2.371988 62.85831,-1.456318 5.7624,-0.982264 13.15079,-2.532277 18.04143,-3.784913 1.18878,-0.304483 2.23091,-0.553606 2.31583,-0.553606 0.0849,0 0.15702,0.387075 0.16021,0.860167 0.003,0.473091 0.22972,1.353248 0.50337,1.955904 0.3835,0.844562 0.72026,1.169236 1.46908,1.416369 0.89263,0.294593 1.10893,0.252985 2.66359,-0.512373 1.00687,-0.495682 2.33335,-1.474277 3.27567,-2.416599 l 1.58359,-1.583595 0.15423,1.00023 c 0.27157,1.761219 0.53073,2.314708 1.24389,2.656516 1.0935,0.524099 1.82967,0.05058 3.35762,-2.159684 0.76459,-1.106014 1.50213,-2.010934 1.63899,-2.010934 0.13685,0 0.24882,0.301575 0.24882,0.670167 0,1.732132 1.95624,4.093831 3.39099,4.093831 1.00253,0 1.90235,-0.692374 1.90235,-1.463784 0,-1.008539 -1.31019,-4.056559 -4.38115,-10.192342 -2.90823,-5.810641 -3.1875,-6.709949 -2.62956,-8.467868 0.17325,-0.545852 0.2586,-0.505462 1.49547,0.707722 1.33359,1.308053 2.5021,2.932299 2.2738,3.160604 -0.0692,0.0692 -0.44009,0.0063 -0.82419,-0.139704 -0.38411,-0.146036 -0.69837,-0.215405 -0.69837,-0.154152 0,0.06125 0.9516,1.566411 2.11468,3.344795 3.44225,5.263317 4.54053,8.998494 3.59861,12.23859 -0.52051,1.790472 -1.89343,3.446607 -3.22021,3.884484 -1.33845,0.441727 -3.05168,-0.437405 -3.99747,-2.051267 -0.64811,-1.105927 -0.73034,-1.16189 -1.05492,-0.717993 -0.19362,0.26478 -0.35203,0.62471 -0.35203,0.799844 0,0.175133 -0.34553,0.688319 -0.76785,1.140414 -1.41641,1.516271 -3.96007,0.973305 -4.78643,-1.021706 -0.18293,-0.441634 -0.42754,-0.802971 -0.54357,-0.802971 -0.11603,0 -0.46925,0.417904 -0.78492,0.928675 -0.8081,1.307521 -2.68447,2.349119 -4.2318,2.349119 -2.38231,0 -3.45897,-0.944341 -3.84396,-3.371533 -0.13962,-0.880303 -0.24103,-1.002115 -0.74013,-0.889018 -0.31808,0.07208 -2.75908,0.736778 -5.42444,1.477107 -15.59137,4.330658 -30.16745,6.466634 -48.21954,7.066082 -16.00151,0.531356 -38.69967,-2.557137 -48.8415,-6.645764 -1.24786,-0.503067 -2.37722,-0.914668 -2.5097,-0.914668 -0.13248,0 -0.27468,1.280325 -0.316,2.845166 l -0.0751,2.845166 -1.4916,-1.455666 c -1.33253,-1.300438 -1.52317,-1.625007 -1.78774,-3.043666 -0.16288,-0.8734 -0.38491,-2.000943 -0.4934,-2.505651 -0.38465,-1.78943 -2.32041,-2.060707 -4.44957,-0.623562 -0.57256,0.386469 -2.88552,2.665521 -5.13991,5.06456 -5.16765,5.499216 -6.40125,6.465232 -8.44487,6.613054 -1.32601,0.09591 -1.60806,0.02568 -2.32726,-0.579478 z m 23.36668,-8.773587 c 0.17695,-0.705037 -0.33932,-1.504442 -1.30558,-2.021565 -0.42827,-0.229206 -0.46698,-0.186654 -0.30227,0.332294 0.4185,1.318582 0.94099,2.361602 1.18303,2.361602 0.14084,0 0.33201,-0.302549 0.42482,-0.672331 z m 124.36697,8.593674 c -1.43931,-0.822062 -1.45747,-0.899654 -0.64211,-2.742928 l 0.53278,-1.204424 1.55722,0.786081 c 0.85646,0.432344 1.60869,0.878071 1.6716,0.990503 0.19607,0.3504 -1.10576,2.984979 -1.46017,2.955006 -0.18479,-0.01563 -0.93149,-0.368535 -1.65932,-0.784238 z M 61.478848,59.859972 c -0.511936,-0.565683 -0.5675,-1.972222 -0.128308,-3.247997 0.300378,-0.872545 1.552476,-2.968339 1.687078,-2.823874 0.03666,0.03935 -0.108674,0.786146 -0.322973,1.659546 -0.292278,1.191208 -0.319077,1.772946 -0.107252,2.328174 0.254906,0.668152 0.370954,0.723559 1.192619,0.569414 0.818763,-0.153601 0.896252,-0.117289 0.771088,0.36134 -0.384509,1.470364 -2.194445,2.145463 -3.092252,1.153397 z m 28.145971,-0.369669 c 0,-0.07003 0.863475,-0.698073 1.918833,-1.395648 3.414769,-2.257111 5.162586,-3.802014 6.389743,-5.647922 0.651505,-0.980003 1.424488,-1.99896 1.71774,-2.264349 0.521405,-0.471863 0.545165,-0.462883 1.075115,0.406369 1.06947,1.75422 0.49261,2.895397 -1.183924,2.34209 -0.52487,-0.173223 -0.980431,-0.273306 -1.012358,-0.222406 -2.202656,3.511623 -3.499145,4.919297 -5.433571,5.899545 -1.199898,0.608034 -3.471578,1.185394 -3.471578,0.882321 z M 40.737303,57.787575 c -0.322225,-0.0685 -0.9475,-0.462371 -1.389499,-0.87526 -0.665256,-0.621442 -0.803636,-0.956199 -0.803636,-1.944088 0,-0.986538 0.178054,-1.418635 1.027288,-2.492997 0.565009,-0.714789 1.533746,-1.733126 2.152749,-2.26297 l 1.125461,-0.963352 -0.710158,-0.32357 c -0.55129,-0.251184 -0.903863,-0.253525 -1.57604,-0.01046 -0.476235,0.172209 -0.935601,0.313107 -1.020813,0.313107 -0.340276,0 0.157594,-1.0839 0.786956,-1.713261 0.557161,-0.557161 0.91663,-0.668355 2.15448,-0.666438 2.346215,0.0036 4.264741,0.299912 4.264741,0.658607 0,0.17738 -1.501,1.432623 -3.335555,2.789428 -1.834555,1.356805 -3.459299,2.738507 -3.610542,3.070448 -0.689102,1.512415 1.653951,2.806522 4.009319,2.214415 1.771459,-0.445322 2.805004,-1.181196 3.997043,-2.84586 1.132973,-1.582178 1.421764,-1.289782 0.503627,0.509914 -0.694484,1.3613 -2.722511,3.401037 -3.962649,3.98553 -1.043672,0.491895 -2.710055,0.748722 -3.612772,0.556809 z M 27.362005,52.980054 c -0.837008,-0.382449 -1.521833,-0.850997 -1.521833,-1.041218 0,-0.19022 0.17865,-0.773425 0.397,-1.29601 0.21835,-0.522585 0.397,-1.043392 0.397,-1.15735 0,-0.113957 -0.565725,-0.533691 -1.257167,-0.932742 -0.691441,-0.399051 -1.302913,-0.76379 -1.358825,-0.81053 -0.05591,-0.04674 0.165588,-0.799597 0.492224,-1.673013 l 0.593883,-1.588028 0.897275,0.38841 c 0.493502,0.213626 1.312262,0.56788 1.819466,0.787232 l 0.922191,0.398821 -0.64424,1.456741 -0.64424,1.45674 1.576219,0.795673 1.576219,0.795673 -0.799313,1.583431 c -0.439622,0.870887 -0.827374,1.571753 -0.86167,1.557481 -0.0343,-0.01427 -0.747181,-0.338862 -1.584189,-0.721311 z M 67.323427,48.10315 C 67.206006,44.843635 66.78843,41.631021 65.15333,31.407551 64.039745,24.444863 63.01471,18.448483 62.875473,18.082263 c -0.163628,-0.430376 -0.158431,-1.007731 0.0147,-1.632562 0.518115,-1.869927 0.658764,-1.831974 1.940378,0.523586 1.067468,1.961969 2.297613,4.57668 2.297613,4.883648 0,0.325368 -0.64012,0.03231 -1.059626,-0.485109 -0.687412,-0.84786 -0.821204,-0.52254 -0.52419,1.274583 0.526671,3.186688 2.636834,17.26038 2.927315,19.52367 0.224167,1.746598 0.223485,3.203587 -0.0027,5.761694 -0.166505,1.883165 -0.370394,3.600247 -0.453086,3.815739 -0.384264,1.001377 -0.558036,0.08682 -0.692448,-3.644362 z m 52.922253,3.771498 c -0.0792,-0.218349 -0.33618,-2.540799 -0.57098,-5.160998 -0.55275,-6.16836 -1.22607,-11.240511 -2.70502,-20.377064 -0.65997,-4.077109 -1.25811,-7.912371 -1.3292,-8.522804 -0.1254,-1.076729 0.30591,-2.992454 0.67373,-2.992454 0.0999,0 0.94366,1.548872 1.87498,3.441938 1.62934,3.311942 1.93289,4.633871 0.71379,3.10856 -1.30095,-1.627718 -1.29668,-1.563904 0.75775,11.314496 1.97467,12.378414 2.06779,13.237371 1.71461,15.816814 -0.32167,2.349366 -0.88762,4.038462 -1.12966,3.371512 z m 29.12386,-3.095511 c -0.0809,-1.863851 -0.46086,-5.413519 -0.8443,-7.888151 -0.38343,-2.474633 -1.22299,-7.953231 -1.86569,-12.174663 -0.6427,-4.221432 -1.37049,-8.532854 -1.61732,-9.580939 -0.42543,-1.806488 -0.42441,-1.969416 0.0197,-3.132297 0.25766,-0.674678 0.56185,-1.127253 0.67597,-1.005723 0.44155,0.470199 3.17223,6.147994 3.17223,6.595872 0,0.390481 -0.13869,0.340248 -0.794,-0.287577 -0.4367,-0.418385 -0.80662,-0.649092 -0.82204,-0.512683 -0.0781,0.691019 0.17436,2.486873 1.36354,9.69787 1.8335,11.118104 1.99313,12.808207 1.64224,17.386899 -0.16009,2.088955 -0.40179,3.908825 -0.53712,4.044155 -0.15163,0.15163 -0.30253,-1.054432 -0.39321,-3.142763 z M 74.538824,46.899981 c -0.800617,-0.389287 -1.49324,-0.727288 -1.539163,-0.751114 -0.04592,-0.02383 0.283659,-0.770648 0.732402,-1.659604 l 0.815898,-1.616285 1.583431,0.799313 c 0.870887,0.439622 1.583431,0.85451 1.583431,0.921973 0,0.271268 -1.443568,3.0446 -1.576968,3.029615 -0.07885,-0.0089 -0.798415,-0.334611 -1.599031,-0.723898 z m 82.778436,-0.318664 c -0.10126,-0.363917 -0.43637,-1.954121 -0.74468,-3.533788 -0.9662,-4.950475 -0.7251,-6.096845 1.45756,-6.930411 1.56574,-0.597962 1.56781,-1.038554 0.004,-0.824192 -1.17537,0.161102 -1.19218,0.152988 -0.88508,-0.427192 0.63818,-1.205634 1.63033,-2.311745 2.07358,-2.311745 0.25129,0 1.19325,0.475934 2.09325,1.057632 l 1.63637,1.057633 -0.39905,0.771664 c -0.57047,1.103167 -1.55001,1.786753 -3.27353,2.284465 -2.58837,0.747463 -2.75526,1.136388 -2.01779,4.702393 0.40481,1.957467 0.45326,5.582991 0.0555,4.153541 z m 124.68698,-1.356521 c -0.49349,-0.493489 -0.54606,-0.777686 -0.42839,-2.315832 0.0834,-1.089847 0.41217,-2.385469 0.8689,-3.423888 l 0.73477,-1.670577 0.32167,0.935686 c 0.17692,0.514627 0.6941,1.359856 1.14929,1.878286 0.69298,0.789265 0.82761,1.159683 0.82761,2.277082 0,1.122066 -0.12314,1.457627 -0.77364,2.108123 -0.92186,0.921864 -1.91205,0.999283 -2.70021,0.21112 z m 2.38511,-1.658981 0.63158,-0.350079 -1.17865,-0.810931 c -1.28168,-0.88182 -1.63105,-0.831962 -1.75568,0.250552 -0.13052,1.133595 1.05473,1.602217 2.30275,0.910458 z M 11.752412,40.0237 c 0.867753,-0.722255 1.908082,-2.105315 1.911353,-2.54104 0.0017,-0.228913 -1.670401,-0.05423 -2.489452,0.260071 -0.329915,0.1266 -0.420137,-0.02105 -0.420137,-0.687561 0,-0.606069 0.245969,-1.092859 0.860167,-1.702333 0.712601,-0.70712 1.195476,-0.908343 2.814706,-1.172937 1.074996,-0.175663 2.010155,-0.263771 2.078131,-0.195796 0.261394,0.261395 -0.814907,2.882429 -1.61888,3.942336 -0.83145,1.09613 -3.114561,2.838964 -3.700868,2.825093 -0.165507,-0.0039 0.08873,-0.331441 0.56498,-0.727833 z m 61.516932,-1.97788 c 0.676697,-0.618658 1.442827,-1.469632 1.702511,-1.891054 l 0.472152,-0.766221 -1.280429,0.192013 c -0.704236,0.105606 -1.443852,0.254723 -1.643591,0.33137 -0.887586,0.340599 -0.194092,-2.051018 0.779758,-2.689108 0.642931,-0.421265 4.383014,-1.318451 4.598385,-1.103079 0.06388,0.06388 -0.02083,0.634346 -0.188253,1.267698 -0.493054,1.86521 -1.738343,3.549044 -3.489568,4.718468 -2.073248,1.384461 -2.501439,1.357406 -0.950965,-0.06009 z m 55.144136,-4.492055 c -0.2266,-0.323523 -0.41201,-1.110415 -0.41201,-1.748649 0,-0.922754 -0.0813,-1.129224 -0.397,-1.008083 -0.21835,0.08379 -0.397,0.09398 -0.397,0.02264 0,-0.269035 1.40596,-2.241286 1.51793,-2.129318 0.0644,0.06442 0.15022,0.731548 0.19068,1.482507 0.0784,1.454934 0.57849,2.237824 1.26199,1.975541 0.52126,-0.200025 0.7518,-1.030922 0.5567,-2.006407 -0.17961,-0.898071 0.10838,-2.616674 0.43848,-2.616674 0.20673,0 0.70697,2.24071 0.59779,2.677699 -0.0224,0.08985 0.25794,0.44403 0.62308,0.787064 0.9206,0.864859 1.19713,0.333495 0.99189,-1.905946 -0.20615,-2.24934 0.25033,-2.651479 0.82255,-0.724624 0.52974,1.783853 0.52864,3.906708 -0.002,4.664915 -0.44504,0.63538 -1.40558,0.767264 -2.25954,0.310237 -0.40736,-0.218008 -0.66827,-0.160904 -1.2093,0.264666 -0.89893,0.707101 -1.80912,0.689252 -2.32381,-0.04557 z m 153.74288,-1.005933 c -0.56981,-1.151043 -0.8878,-1.531678 -1.1776,-1.409579 -0.94761,0.399252 -1.78599,0.385933 -2.20699,-0.03506 -0.62808,-0.628081 -0.57648,-2.382393 0.0897,-3.048536 0.97454,-0.974545 1.73118,-0.572575 3.06964,1.630767 l 0.99234,1.633564 0.60897,-2.294017 c 0.33494,-1.26171 0.79188,-2.647704 1.01542,-3.079986 0.96197,-1.860257 2.51829,-1.46199 2.51829,0.64444 0,1.335879 -0.58553,2.297366 -1.09378,1.796065 -0.5238,-0.516645 -1.27357,-0.389663 -1.56272,0.264667 -0.14473,0.327524 -0.48995,1.647944 -0.76715,2.934266 -0.2772,1.286322 -0.54933,2.384102 -0.60474,2.439511 -0.0554,0.05541 -0.45201,-0.608837 -0.88134,-1.476102 z M 138.84633,31.349756 c -0.009,-2.152897 -0.42301,-3.775897 -1.23535,-4.84092 -0.78936,-1.034904 -1.18266,-3.219357 -0.5791,-3.216369 0.42569,0.0021 1.33298,1.266301 1.99314,2.777191 0.57164,1.308301 0.68562,5.996085 0.15862,6.523667 -0.26471,0.264999 -0.33213,0.01644 -0.33731,-1.243569 z m 18.72547,-1.835366 -0.70467,-1.436807 -1.32128,0.156486 c -1.22899,0.145556 -1.34275,0.109364 -1.62869,-0.518201 -0.23946,-0.525565 -0.22717,-0.928298 0.0556,-1.822115 0.32018,-1.012014 0.45513,-1.147428 1.14355,-1.147428 0.76702,0 1.08303,0.317739 2.87186,2.887563 0.31615,0.454175 0.41529,0.269764 0.97534,-1.814243 0.74476,-2.771356 1.47447,-3.984653 2.39648,-3.984653 0.61987,0 0.65488,0.08598 0.7295,1.79158 l 0.0784,1.791579 -1.04562,-0.167202 c -1.28944,-0.20619 -1.44767,0.03194 -2.14668,3.230645 -0.2723,1.246078 -0.541,2.311498 -0.5971,2.3676 -0.0561,0.0561 -0.4191,-0.54456 -0.80668,-1.334804 z M 96.918158,29.848433 C 96.681346,29.510337 96.50615,28.708756 96.50615,27.96336 c 0,-1.183797 -0.03893,-1.265185 -0.446553,-0.93361 -0.396679,0.32267 -0.424618,0.30412 -0.250153,-0.166093 0.108021,-0.291133 0.457845,-0.914996 0.777387,-1.386362 l 0.580986,-0.857028 0.133374,1.518695 c 0.153643,1.749491 0.362645,2.180361 1.057625,2.180361 0.729809,0 0.883772,-0.420352 0.906184,-2.474085 0.02573,-2.357924 0.488551,-2.562082 0.89186,-0.393413 0.54376,2.923916 1.82977,3.245198 1.52298,0.380486 -0.17061,-1.59311 -0.0283,-2.541653 0.38121,-2.541653 0.35167,0 0.7971,2.273403 0.7971,4.068294 0,2.403182 -0.73812,3.057494 -2.44478,2.167192 -0.585016,-0.305179 -0.763308,-0.312302 -0.926336,-0.03701 -0.250462,0.42294 -1.223461,0.947519 -1.757477,0.947519 -0.219665,0 -0.584795,-0.2647 -0.811399,-0.588223 z M 20.47921,29.449486 c -0.814922,-0.900478 -0.378474,-4.308198 0.849621,-6.633711 0.498572,-0.944092 0.518385,-0.954157 0.529645,-0.269046 0.0072,0.438239 0.417964,1.181141 1.068952,1.933298 1.26016,1.456001 1.495804,2.224671 1.09357,3.56721 -0.372915,1.244679 -0.79468,1.605888 -2.075742,1.777715 -0.771177,0.103436 -1.11153,0.01627 -1.466046,-0.375466 z m 2.383463,-1.561645 c 0.881359,-0.236195 0.724014,-0.683789 -0.48264,-1.372954 -1.144963,-0.65393 -1.833193,-0.481017 -1.833193,0.460577 0,0.933231 0.90604,1.290187 2.315833,0.912377 z m 63.586147,0.465311 c 0,-2.418771 7.571584,-7.637366 15.54042,-10.710993 2.91943,-1.126037 4.30957,-1.436403 4.30957,-0.96216 0,0.760648 -0.63944,2.37116 -1.22092,3.075036 l -0.62506,0.756624 0.39649,-1.166118 c 0.21806,-0.641365 0.35576,-1.206833 0.306,-1.256596 -0.20628,-0.206283 -4.21925,1.337869 -6.963326,2.679421 -3.079255,1.505419 -7.274009,4.213667 -10.089008,6.51374 -0.909791,0.74337 -1.654166,1.225341 -1.654166,1.071046 z M 73.091605,26.55975 c -0.421863,-0.851817 -0.797066,-1.590682 -0.833786,-1.641921 -0.03672,-0.05124 -0.339166,0.09764 -0.672102,0.330833 -0.794821,0.556714 -1.170706,0.534849 -1.810892,-0.105338 -0.943357,-0.943356 -0.579873,-3.314969 0.529333,-3.453721 1.011722,-0.126557 1.362833,0.12684 2.40181,1.733389 0.611909,0.946183 1.141611,1.720332 1.177115,1.720332 0.0355,0 0.271301,-0.877927 0.523994,-1.950949 0.582962,-2.475463 1.662856,-4.533382 2.378894,-4.533382 0.781779,0 1.323272,1.309439 1.030813,2.492717 -0.209523,0.847723 -0.329541,0.950747 -1.135149,0.974416 -1.17159,0.03442 -1.497863,0.517655 -2.017627,2.988253 -0.672729,3.197692 -0.694607,3.217803 -1.572403,1.445371 z m 47.246475,0.370074 c 0.0251,-0.695457 0.68344,-1.759592 1.5147,-2.448312 2.04625,-1.695389 7.06731,-4.810371 10.25103,-6.359574 3.23311,-1.573241 9.28659,-3.829943 10.2736,-3.829943 0.57199,0 0.55544,0.08864 -0.37068,1.984999 -0.72229,1.478999 -0.76549,1.519874 -0.6294,0.5955 0.0926,-0.628743 0.0405,-0.9925 -0.14209,-0.9925 -0.15852,0 -1.44306,0.432539 -2.85453,0.961197 -5.85796,2.194062 -10.90977,5.000206 -15.47398,8.595381 -1.27366,1.003247 -2.37533,1.824085 -2.44817,1.824085 -0.0728,0 -0.12705,-0.148875 -0.12048,-0.330833 z M 84.283079,24.809002 c -0.106268,-2.024676 -0.243814,-2.549567 -1.095228,-4.17952 -1.321544,-2.529975 -1.300062,-4.503453 0.03357,-3.083867 1.205373,1.283061 1.743636,3.060251 1.740018,5.745043 -0.0019,1.382883 -0.127913,2.811215 -0.280109,3.174072 -0.229849,0.547992 -0.297305,0.267546 -0.398251,-1.655728 z m -36.868701,1.031554 c -0.361431,-0.264285 -0.525967,-0.799352 -0.612139,-1.990666 -0.09841,-1.360529 -0.179064,-1.578426 -0.489023,-1.321183 -0.204147,0.169427 -0.426502,0.252722 -0.494123,0.185102 -0.186567,-0.186567 1.408031,-2.599149 1.71791,-2.599149 0.153535,0 0.270495,0.672627 0.270495,1.555592 0,1.108947 0.122698,1.657422 0.427335,1.910249 0.36616,0.303886 0.497657,0.267812 0.918566,-0.251988 0.381008,-0.470525 0.455786,-0.865246 0.333263,-1.759149 -0.17437,-1.272169 0.08196,-2.724586 0.415302,-2.353153 0.116874,0.13023 0.364478,0.97985 0.550231,1.888044 0.386717,1.890757 0.865414,2.495053 1.485371,1.875097 0.334015,-0.334015 0.348354,-0.596003 0.089,-1.626005 -0.314596,-1.249376 -0.174792,-2.56202 0.27287,-2.56202 0.413394,0 0.798362,1.875808 0.799922,3.89773 0.0013,1.712668 -0.06312,1.95506 -0.616152,2.317417 -0.499113,0.327031 -0.781906,0.347418 -1.473747,0.10624 -0.773108,-0.269506 -0.926343,-0.231166 -1.580354,0.395416 -0.81434,0.780188 -1.294112,0.859349 -2.014723,0.332426 z"
     id="path2" /></svg>
