<?xml version="1.0" encoding="UTF-8" standalone="no"?>
<!-- Created with Inkscape (http://www.inkscape.org/) -->

<svg
   width="1080"
   height="1080"
   viewBox="0 0 285.74999 285.75"
   version="1.1"
   id="svg1"
   xml:space="preserve"
   inkscape:version="1.4.2 (f4327f4, 2025-05-13)"
   sodipodi:docname="thaqib.svg"
   inkscape:export-filename="thaqib.svg"
   inkscape:export-xdpi="96"
   inkscape:export-ydpi="96"
   xmlns:inkscape="http://www.inkscape.org/namespaces/inkscape"
   xmlns:sodipodi="http://sodipodi.sourceforge.net/DTD/sodipodi-0.dtd"
   xmlns="http://www.w3.org/2000/svg"
   xmlns:svg="http://www.w3.org/2000/svg"><sodipodi:namedview
     id="namedview1"
     pagecolor="#505050"
     bordercolor="#ffffff"
     borderopacity="1"
     inkscape:showpageshadow="0"
     inkscape:pageopacity="0"
     inkscape:pagecheckerboard="1"
     inkscape:deskcolor="#505050"
     inkscape:document-units="mm"
     inkscape:zoom="0.5"
     inkscape:cx="108"
     inkscape:cy="603"
     inkscape:window-width="1920"
     inkscape:window-height="1009"
     inkscape:window-x="-8"
     inkscape:window-y="-8"
     inkscape:window-maximized="1"
     inkscape:current-layer="svg1"><inkscape:page
       x="0"
       y="0"
       width="285.75"
       height="285.75"
       id="page2"
       margin="0"
       bleed="0" /></sodipodi:namedview><defs
     id="defs1" /><rect
     style="display:none;opacity:1;fill:#f7f3ed;fill-opacity:1;stroke-width:1.0292"
     id="rect1"
     width="285.75"
     height="285.75"
     x="0"
     y="0" /><path
     id="path1"
     style="fill:#f7f3ec;fill-opacity:1;stroke:none;stroke-width:1.01539"
     d="m 178.07282,20.149536 v 7.403736 c 0,1.012443 -0.25916,2.456268 0.13958,3.404878 0.38119,0.906896 1.47758,1.520772 2.17389,2.169175 1.51006,1.406169 2.97383,2.962736 4.22291,4.607003 4.48188,5.899943 6.65182,12.738929 6.65182,20.129661 2.68291,-1.645679 2.77697,-7.850538 2.7768,-10.643329 -5.8e-4,-8.716009 -4.08649,-17.49761 -10.64334,-23.202922 -1.61767,-1.40758 -3.28728,-3.096908 -5.32166,-3.868202 z m -22.19704,12.150313 c 0,2.784591 -0.98405,6.640822 -0.18627,9.296385 0.50889,1.693964 3.06981,2.617273 3.88289,4.304241 2.18102,4.525125 2.91119,10.008294 4.11534,14.792782 4.81512,19.132359 8.27394,38.947213 10.23143,58.457503 0.81916,8.16462 1.70154,22.1805 12.57585,25.10659 6.58761,1.7726 13.41779,-1.46095 16.98715,-6.25723 4.8532,-6.52144 5.73731,-15.22806 3.61896,-22.66718 -0.82838,-2.90901 -1.86554,-7.19674 -4.7492,-9.06656 -1.27867,2.52075 -3.7829,7.99536 -3.11786,10.73673 0.89429,3.68628 6.03157,7.75275 3.08796,11.69117 -3.40406,4.55449 -11.41315,6.55521 -16.36273,2.78572 -2.75835,-2.1007 -4.00085,-5.4888 -4.75078,-8.51194 -2.24271,-9.04074 -3.06527,-18.50752 -4.35986,-27.67768 -2.10718,-14.926226 -4.34665,-30.277506 -8.6704,-44.856887 2.08335,1.573403 4.94015,3.976848 7.65455,4.533542 -1.53407,-6.469269 -8.18286,-12.634468 -13.07696,-17.417932 -1.99109,-1.946067 -4.1346,-4.109089 -6.88007,-5.249254 z m -8.71028,9.255456 c -1.73143,0.807956 -2.65692,2.563726 -3.56754,4.164668 -2.19946,3.866836 -3.60255,8.561997 -4.20088,12.957325 -0.33637,2.470936 -0.0457,6.135441 3.14096,6.387888 2.94355,0.233185 5.32783,-2.529108 6.33384,-5.000014 1.94274,-4.771613 0.53646,-9.535407 -4.25126,-11.800328 z m -38.64058,5.432905 c -0.63819,-0.04011 -1.31993,0.08082 -2.02121,0.398259 -3.49974,1.584235 -8.024922,8.223466 -5.02572,11.898975 1.46782,1.798822 3.93659,2.876878 5.95132,3.936941 v 0.2314 l -4.64845,5.321663 -10.622343,10.115468 -11.568928,9.597571 -6.478663,5.506886 c 4.005707,-0.837849 7.667883,-3.755739 10.874729,-6.160681 5.954219,-4.465303 11.625238,-9.166425 16.890595,-14.431777 2.59014,-2.590139 6.08011,-5.762474 7.40426,-9.254932 1.36496,0.588031 3.49496,2.334941 5.06508,1.710573 0.78436,-0.311901 1.01448,-1.197115 1.17851,-1.941972 0.59036,-2.680875 -1.25051,-4.370123 -3.69872,-5.090266 0.54213,-1.444991 0.79959,-3.087886 0.90513,-4.627466 0.0798,-1.163959 0.0106,-2.33652 -0.26603,-3.470993 -0.5001,-2.051032 -2.025,-3.61934 -3.93956,-3.739649 z m 103.23883,1.849098 -9.48633,5.089741 -16.19639,9.056065 -6.5474,3.95006 -1.31966,4.578667 c 8.46,-3.645557 16.44655,-9.143032 24.52573,-13.580163 4.31631,-2.37054 8.23473,-3.749652 9.02405,-9.09437 z m -104.49973,3.546028 c 0.75955,-0.01328 1.48642,0.306376 2.01439,1.131287 0.82377,1.287076 0.57678,2.735451 0.4649,4.154697 -2.09741,-0.373883 -4.18957,-1.879715 -5.78446,-3.239068 0.68221,-1.077175 2.03926,-2.024788 3.30517,-2.046916 z m 35.73681,0.509499 c 0.84433,0.364392 1.5893,0.820093 2.31295,1.391545 0.80646,0.636851 2.25598,1.814801 2.08417,3.003997 -0.24648,1.706038 -3.64959,3.439153 -5.03832,2.213775 -1.1204,-0.988619 -0.77228,-2.802508 -0.41663,-4.064447 0.25402,-0.901289 0.59601,-1.732608 1.05783,-2.54487 z m 81.57123,11.043163 c -0.15831,0.004 -0.32492,0.04476 -0.499,0.131703 -0.89761,0.448336 -1.29895,1.585164 -1.60091,2.471411 -0.75489,2.215529 -1.31388,4.851289 -1.3333,7.198048 h -0.26656 c -0.0977,-2.240701 -1.20372,-5.14492 -2.74479,-6.775128 -1.71774,-1.817128 -3.25494,0.114223 -3.09057,2.109881 0.0844,1.023881 0.99346,1.793203 1.96925,1.95509 0.48719,0.08084 0.9832,-0.09898 1.33751,0.335818 1.44132,1.768733 1.71062,4.642191 2.26205,6.773554 0.88916,-0.438351 1.02952,-1.496318 1.18848,-2.399524 0.33475,-1.90212 0.5499,-3.862779 1.04208,-5.731993 0.14956,-0.568006 0.38201,-2.017148 1.11555,-2.124574 0.77094,-0.112913 1.3475,1.305275 1.5857,1.858018 h 0.26654 c 0.84093,-1.446232 1.06142,-2.997421 0.29227,-4.531968 -0.30741,-0.613318 -0.83823,-1.287782 -1.5243,-1.270336 z m -183.262677,9.86675 c -3.506414,-0.0914 -4.104091,4.883323 -4.44434,7.549084 -0.456766,3.578674 -1.385663,10.62175 1.827584,13.237521 1.561124,1.270847 4.0474,1.334287 5.972836,1.339597 -2.96766,6.65347 -9.142295,11.10361 -13.383919,16.89008 -2.169523,2.95966 -4.247516,6.83662 -3.92907,10.64332 0.547915,6.54978 6.160327,7.09313 11.297651,4.67837 5.517844,-2.59362 10.249549,-6.95549 14.094384,-11.6193 1.735722,-2.10546 3.649426,-4.51371 4.415481,-7.17287 -3.638348,2.10069 -6.619686,5.41299 -10.18053,7.7065 -3.718826,2.39527 -7.853924,4.64066 -12.263127,5.38148 -1.142961,0.19204 -4.613443,0.74889 -4.391871,-1.29133 0.360977,-3.32388 5.254264,-7.14202 7.36071,-9.48265 2.605933,-2.89564 5.352138,-6.00643 7.151873,-9.48686 0.932132,-1.8026 1.214373,-4.62245 2.359646,-6.17695 1.22148,-1.657923 4.172709,-0.19648 4.940197,-2.616235 C 54.43148,86.148068 50.007884,74.789494 41.657794,73.82741 41.538541,73.81367 41.422493,73.8057 41.309383,73.80275 Z m 112.676367,0.807013 c -0.11322,-0.0069 -0.2262,2.54e-4 -0.33791,0.02467 -1.37925,0.301353 -2.16514,2.595234 -2.72275,3.709739 -0.61979,1.238793 -2.06455,3.172492 -1.81341,4.624318 0.15493,0.895682 1.07821,1.434055 1.75621,1.921509 1.64196,1.180497 5.51746,5.026974 7.62621,4.69358 1.39096,-0.219912 2.27134,-2.512293 2.85342,-3.604272 0.65203,-1.223216 1.93835,-3.170933 1.688,-4.626417 -0.36616,-2.128868 -5.15582,-4.427873 -6.84597,-5.554114 -0.59837,-0.39873 -1.41122,-1.14053 -2.2038,-1.189004 z m -90.659303,0.578762 c -0.177371,0.0029 -0.367135,0.0522 -0.570366,0.158464 -1.657724,0.866802 -2.48902,4.357612 -3.050171,6.004845 -1.233285,3.62025 -0.463423,6.294944 0.172631,9.949131 0.738941,4.245267 1.563522,8.475977 2.276216,12.725937 3.193706,19.04484 6.42453,38.08443 9.486858,57.14991 1.310654,8.15989 4.492536,18.41654 0.37727,26.14605 -7.294856,13.70158 -27.135445,21.65512 -39.150075,9.48528 -8.112609,-8.21741 -10.613666,-20.35145 -11.100358,-31.46614 -0.331601,-7.57281 0.996593,-15.5425 2.686544,-22.90645 0.929769,-4.05146 2.771381,-8.31725 2.8576,-12.49454 -1.721494,1.27071 -2.650158,3.41967 -3.523989,5.32167 -2.079445,4.52617 -3.460657,9.47287 -4.435421,14.34573 -3.230145,16.14759 -3.679315,34.00594 3.969473,49.05197 5.419589,10.66094 18.652908,13.80718 21.480279,14.0162 2.797119,0.20679 7.331316,0.1998 10.50638,-1.15805 10.065131,-4.30442 17.702893,-13.19927 21.055261,-23.502 h 0.231399 c 0.02366,2.85804 0.68723,5.73816 1.094033,8.56126 0.679181,4.71338 1.219395,9.78287 3.327221,14.11379 1.921033,3.94713 5.916538,6.19835 10.155344,4.31579 5.457203,-2.42366 5.959088,-8.23189 9.717734,-11.95092 0.30511,3.73566 2.99438,8.78711 6.47866,10.41193 -4.88917,12.67413 -6.0715,30.10853 6.71006,38.69778 1.96128,1.31799 4.21385,2.24782 6.47814,2.88173 3.28432,0.9195 6.78218,1.13316 10.18053,0.98437 7.38268,-0.32328 14.72612,-2.63697 21.51807,-5.40405 12.75933,-5.19826 25.04142,-12.48283 35.16958,-21.86857 7.61171,-7.05376 13.40595,-15.72021 13.87347,-26.39738 0.33325,-7.61045 -2.47197,-15.32915 -7.46197,-21.05528 -2.05777,-2.36132 -5.57464,-5.17795 -8.9569,-4.47266 -2.37474,0.49519 -4.16564,2.15183 -5.62967,4.00988 -3.74705,4.75554 -8.46832,15.0514 -3.78057,20.58931 2.93928,3.47235 8.16042,2.6804 12.18704,2.27779 2.43303,-0.24327 5.21214,-0.62406 7.1482,1.23938 3.92284,3.77573 -2.48687,8.81875 -5.06613,11.28506 -4.71484,4.50836 -10.08725,8.35353 -15.5022,11.96351 -11.84103,7.89399 -25.55072,15.00028 -39.79653,17.03016 -9.23077,1.31528 -20.04698,-0.72049 -24.45175,-10.01157 -1.04213,-2.1982 -1.57154,-4.53745 -1.85906,-6.94145 -0.54834,-4.58498 1.13415,-8.55338 1.78456,-12.95733 13.74428,5.63877 30.54053,2.80956 42.57332,-5.79339 6.62836,-4.73899 11.96807,-16.11727 8.25483,-24.05402 -3.66187,-7.82693 -13.66402,-10.41938 -21.44302,-8.47414 -9.36353,2.34148 -16.5512,10.16239 -21.94834,17.72908 -1.91231,2.68104 -4.43235,5.83014 -5.35419,9.02407 -3.84475,-1.27524 -6.63375,-5.87308 -7.10623,-9.71827 -0.14402,-1.17208 0.78763,-5.40858 -0.39825,-5.97493 -1.46839,-0.70125 -3.19149,3.88436 -3.65885,4.81845 -1.984193,3.96586 -6.184581,12.5579 -11.74313,11.60147 -5.524816,-0.95065 -5.970403,-9.81967 -6.610891,-14.14686 -2.25762,-15.25261 -4.875657,-30.51691 -6.808709,-45.81239 11.826415,8.41952 29.52886,-0.97407 38.64005,-9.23814 2.55847,-2.32059 5.60866,-4.97614 7.17234,-8.11525 h 0.2314 c 0.0125,4.54435 1.13961,9.25251 3.87818,12.95681 7.28867,9.85896 24.95488,10.06091 34.06768,2.46983 3.42104,-2.84977 5.64385,-7.19827 6.65549,-11.49337 1.78922,-7.59642 -0.11709,-16.27809 -4.54666,-22.67505 -2.59621,-3.74933 -7.37763,-9.15515 -12.28936,-5.77134 -1.00695,0.6937 -1.89572,1.58905 -2.66923,2.53227 -1.04797,1.27791 -1.87439,2.69891 -2.62726,4.16466 -2.84912,5.54697 -5.87072,16.44492 2.52022,18.80055 3.8341,1.07639 7.73762,-0.46493 11.5684,0.24768 1.58506,0.29485 3.58784,1.78067 3.35451,3.62683 -0.29009,2.29517 -4.99212,3.62543 -6.82498,4.2418 -7.32631,2.46376 -16.31193,2.81082 -22.44366,-2.66241 -4.36405,-3.89538 -6.28227,-9.44876 -5.45388,-15.23091 0.36832,-2.57091 1.92911,-5.52069 1.52062,-8.09794 -1.92038,0.38749 -2.75379,2.22235 -3.80053,3.70187 -1.92983,2.72768 -4.01567,5.27208 -6.38001,7.63566 -8.57875,8.576 -23.288648,18.18442 -36.094657,14.63537 -7.369676,-2.04223 -9.490782,-8.26862 -10.474896,-15.09817 -1.475181,-10.23758 -2.557845,-20.52741 -3.968948,-30.77299 -0.557528,-4.048024 -1.142756,-8.088405 -2.251555,-12.031728 -0.259772,-0.92386 -0.885598,-3.176459 -2.127197,-3.155639 z m 131.916113,0.130654 c -0.0954,-0.0058 -0.19074,4.1e-4 -0.28491,0.02099 -1.16284,0.254069 -1.82553,2.187675 -2.29565,3.127305 -0.52254,1.044416 -1.74021,2.674613 -1.52849,3.898636 0.13064,0.755141 0.90861,1.209364 1.48023,1.620322 1.38431,0.995272 4.65198,4.238495 6.42986,3.957405 1.17269,-0.185399 1.91509,-2.117987 2.40583,-3.038628 0.54972,-1.031277 1.63408,-2.673629 1.42302,-3.900735 -0.30872,-1.794831 -4.34692,-3.733037 -5.77188,-4.682562 -0.50449,-0.336166 -1.18979,-0.961863 -1.85801,-1.00273 z m -69.75201,0.04198 c -0.27481,0.007 -0.5636,0.07785 -0.86578,0.228777 -1.55803,0.778202 -2.25527,2.751238 -2.77942,4.289549 -1.31031,3.845624 -2.2808,8.421115 -2.31452,12.494526 h -0.4628 c -0.16957,-3.889322 -2.08899,-8.930276 -4.76389,-11.759924 -2.9816,-3.154096 -5.65001,0.197484 -5.3647,3.661465 0.14639,1.77721 1.72477,3.112862 3.41853,3.39386 0.84563,0.140306 1.70686,-0.171748 2.32186,0.582959 2.50178,3.070097 2.96827,8.057771 3.9254,11.757311 1.54338,-0.76087 1.78729,-2.59745 2.06319,-4.1652 0.58106,-3.301627 0.95439,-6.704625 1.80869,-9.949134 0.2596,-0.98592 0.66349,-3.501759 1.93672,-3.688224 1.3382,-0.19599 2.33923,2.265997 2.75266,3.225426 h 0.46227 c 1.45965,-2.51031 1.84195,-5.202933 0.50688,-7.866537 -0.53359,-1.064573 -1.45424,-2.235136 -2.64509,-2.204854 z m 13.37814,0.431317 c -0.0865,8.4e-4 -0.17116,0.0091 -0.25395,0.02571 -1.27749,0.256444 -2.0943,2.650044 -2.61203,3.682978 -0.59548,1.188054 -2.18163,3.484891 -1.84281,4.857816 0.51335,2.080219 5.06377,4.256954 6.75886,5.398799 0.70023,0.471679 1.63354,1.319133 2.54382,1.20737 1.43365,-0.176031 2.42325,-2.488184 3.04073,-3.597449 0.66664,-1.197584 2.02917,-3.436668 1.59094,-4.855194 -0.56375,-1.824804 -3.84197,-3.344236 -5.32481,-4.399739 -0.92794,-0.660517 -2.60344,-2.332913 -3.90075,-2.32029 z m 91.26116,5.297527 c -2.11194,-0.05505 -2.47164,2.941578 -2.67658,4.547186 -0.27512,2.155461 -0.83452,6.397026 1.10086,7.972524 0.94026,0.765439 2.43775,0.803821 3.59745,0.807019 -1.78744,4.00742 -5.50645,6.68795 -8.06121,10.17317 -1.30671,1.78264 -2.55826,4.11764 -2.36647,6.41046 0.33002,3.94496 3.70975,4.27215 6.80399,2.81772 3.32345,-1.56215 6.1736,-4.18909 8.48938,-6.99813 1.04543,-1.26813 2.19837,-2.71888 2.65977,-4.32052 -2.19139,1.26527 -3.9871,3.26077 -6.13182,4.64217 -2.23987,1.44268 -4.73073,2.79443 -7.38642,3.24064 -0.68841,0.11567 -2.77854,0.4512 -2.64508,-0.77763 0.21741,-2.00201 3.1646,-4.30175 4.43331,-5.71152 1.56958,-1.74407 3.22391,-3.61735 4.30791,-5.71364 0.56144,-1.08572 0.73113,-2.78446 1.42093,-3.720743 0.73572,-0.998573 2.51341,-0.118293 2.97567,-1.575725 1.38205,-4.357356 -1.28249,-11.198817 -6.31181,-11.778288 -0.0718,-0.0084 -0.14176,-0.01292 -0.20988,-0.0147 z M 42.622222,82.186654 c 2.459687,0.05785 5.73987,4.43575 6.671232,6.106639 -2.186857,0.451132 -7.003801,1.80846 -8.904947,0.06296 -1.364155,-1.252463 0.03055,-5.716153 1.753599,-6.121332 0.15575,-0.03663 0.316136,-0.05213 0.480116,-0.04828 z m 188.298368,3.953207 c 1.48149,0.03484 3.4573,2.671341 4.01828,3.67773 -1.31717,0.27172 -4.21857,1.089627 -5.36365,0.03831 -0.82163,-0.754368 0.0185,-3.443135 1.05626,-3.687177 0.0938,-0.02205 0.19035,-0.03119 0.28911,-0.02885 z m -26.53224,1.684861 c -0.0924,0.0015 -0.18404,0.01457 -0.27442,0.04145 -1.42432,0.423558 -3.04146,4.653797 -3.2821,6.003797 -2.10783,-1.312654 -4.99023,-4.540367 -7.47982,-4.887203 -0.81757,-0.113896 -1.24535,0.623415 -1.57992,1.242527 -0.74903,1.386104 -2.70932,4.120963 -2.38325,5.752457 0.34395,1.72094 4.30457,3.54992 5.68687,4.48158 0.57897,0.39024 1.32137,1.05096 2.07734,0.77397 1.73419,-0.6354 2.94664,-4.42206 3.48727,-6.020066 1.30315,1.001696 2.69022,1.897296 4.02928,2.850786 0.80496,0.57318 2.3967,2.10047 3.45263,1.94669 0.66611,-0.097 1.12264,-0.8356 1.46657,-1.34379 0.80903,-1.19539 2.74622,-4.044631 2.24842,-5.561462 -0.56862,-1.732586 -4.16207,-3.448215 -5.63283,-4.415482 -0.48863,-0.321359 -1.16912,-0.875703 -1.81604,-0.865257 z M 93.314465,96.52661 c -2.111942,-0.055 -2.472164,2.94157 -2.677098,4.54719 -0.275119,2.15546 -0.834515,6.39702 1.100852,7.97252 0.940269,0.76544 2.437751,0.80381 3.59745,0.80701 -1.787431,4.00743 -5.506441,6.68796 -8.061204,10.17318 -1.306712,1.78264 -2.558264,4.11763 -2.366468,6.41045 0.330011,3.94497 3.710264,4.27216 6.804512,2.81773 3.323441,-1.56215 6.173598,-4.18962 8.489371,-6.99867 1.04543,-1.26812 2.19785,-2.71835 2.65926,-4.31997 -2.1914,1.26525 -3.987103,3.26023 -6.131822,4.64163 -2.239872,1.44268 -4.730207,2.79496 -7.3859,3.24116 -0.688412,0.11567 -2.778543,0.45121 -2.645091,-0.77762 0.217415,-2.00201 3.164607,-4.30176 4.433322,-5.71153 1.569574,-1.74407 3.223398,-3.61734 4.307386,-5.71362 0.561428,-1.08573 0.731658,-2.78448 1.42146,-3.72076 0.735709,-0.99857 2.513396,-0.1183 2.975661,-1.57573 1.382054,-4.35735 -1.282483,-11.19881 -6.311804,-11.77828 -0.07183,-0.008 -0.14176,-0.0129 -0.209887,-0.0147 z m 0.790746,5.04986 c 1.481482,0.0348 3.456764,2.67133 4.017745,3.67774 -1.31716,0.27171 -4.218047,1.08959 -5.363115,0.0383 -0.821641,-0.75437 0.01847,-3.44314 1.056252,-3.68717 0.09381,-0.022 0.190353,-0.0312 0.289118,-0.0289 z m 57.299469,10.3626 c 0.13562,8.4e-4 0.26587,0.0116 0.38881,0.0319 2.90221,0.48372 5.35534,3.79287 6.70955,6.1696 -2.84234,0 -9.75465,1.39068 -11.32757,-1.85434 -1.08055,-2.2292 2.19476,-4.35981 4.22921,-4.34727 z m 98.96345,9.92289 c -0.21791,0.005 -0.44725,0.0613 -0.68686,0.18104 -1.23538,0.61705 -1.78821,2.18146 -2.2038,3.4012 -1.03896,3.04925 -1.80818,6.67729 -1.83493,9.90716 h -0.36678 c -0.13445,-3.0839 -1.65698,-7.08106 -3.77794,-9.32473 -2.36416,-2.50093 -4.47959,0.15715 -4.25336,2.90379 0.11607,1.40917 1.36769,2.46792 2.71069,2.69073 0.67052,0.11125 1.35307,-0.13615 1.8407,0.46227 1.9837,2.43432 2.35369,6.38869 3.11261,9.32211 1.22375,-0.60331 1.4173,-2.05895 1.63607,-3.30204 0.46071,-2.6179 0.75665,-5.31649 1.43404,-7.8891 0.20584,-0.78175 0.52628,-2.77639 1.53585,-2.92424 1.06107,-0.1554 1.85446,1.79673 2.18228,2.55746 h 0.36678 c 1.15737,-1.99045 1.46053,-4.1258 0.40193,-6.23781 -0.42309,-0.84412 -1.15304,-1.77184 -2.09728,-1.74784 z m -26.63718,0.62284 c -1.73143,0.80796 -2.65745,2.56373 -3.56807,4.16467 -2.19946,3.86684 -3.60202,8.562 -4.20035,12.95732 -0.33637,2.47094 -0.0463,6.13545 3.14042,6.38789 2.94357,0.23319 5.32783,-2.52911 6.33385,-5.00001 1.94274,-4.77162 0.53646,-9.53488 -4.25125,-11.7998 z m 33.17251,5.77608 c -0.86851,2.18403 -2.08468,5.98863 -2.11723,9.30267 -0.0326,3.31405 5.53705,15.59865 3.53764,19.01098 -2.31215,3.94608 -6.19892,5.02217 -9.56084,1.75622 -0.53431,-0.51906 -0.99529,-1.29929 -1.45872,-2.16498 -0.28482,-0.83396 -0.61277,-1.64889 -0.98541,-2.43835 -0.75414,-1.59764 -1.6043,-4.24563 -3.55967,-4.54824 -0.63688,2.77806 -2.94278,7.08893 -2.17075,9.92289 1.14411,4.19982 5.79533,7.80703 3.71551,12.6105 -1.27802,2.95164 -4.08659,5.41371 -6.50648,7.42578 -8.4122,6.99447 -24.09523,13.53163 -31.88853,2.08364 -6.51348,-9.56802 -4.21302,-22.75762 -6.76936,-33.48997 -1.6229,0.7733 -2.20893,2.71014 -2.6561,4.34149 -1.14133,4.16365 -0.17559,8.20935 0.40875,12.40323 1.55701,11.17467 2.78793,29.26085 16.51122,32.04228 1.6121,0.32674 3.31694,0.50826 4.96171,0.39564 14.39451,-0.98577 27.64748,-12.66638 29.99222,-26.856 0.31937,-1.93275 0.44872,-3.94213 0.37516,-5.95394 3.73304,1.09998 7.70936,1.33564 9.40081,0.23088 6.63929,-4.33644 4.87576,-12.89197 3.43689,-19.33736 -0.56266,-2.52042 -2.70815,-15.11731 -4.66682,-16.73736 z m -37.33771,5.56145 c 0.84432,0.3644 1.58931,0.8201 2.31295,1.39155 0.80646,0.63685 2.25599,1.81532 2.08417,3.00452 -0.24649,1.70604 -3.64959,3.43862 -5.03831,2.21325 -1.12041,-0.98863 -0.77229,-2.8025 -0.41664,-4.06444 0.25402,-0.90129 0.596,-1.73262 1.05783,-2.54488 z m -165.70832,0.80492 c -0.370341,-0.0232 -0.765787,0.0473 -1.172739,0.2314 -2.030905,0.91933 -4.656808,4.77182 -2.916369,6.90473 0.851779,1.04386 2.284528,1.66946 3.453678,2.28461 v 0.13433 l -2.697563,3.08847 -6.164358,5.86999 -6.713211,5.56934 -3.759586,3.19551 c 2.324517,-0.48621 4.449288,-2.1793 6.310229,-3.57488 3.455241,-2.59123 6.746191,-5.3195 9.801686,-8.37499 1.503061,-1.50306 3.528486,-3.34378 4.296895,-5.37046 0.792091,0.34123 2.028313,1.35508 2.939457,0.99276 0.455163,-0.181 0.588514,-0.69485 0.683704,-1.12709 0.342584,-1.55571 -0.725918,-2.53624 -2.146611,-2.95414 0.314596,-0.83853 0.463995,-1.79156 0.52524,-2.68498 0.04631,-0.67544 0.0062,-1.35605 -0.154266,-2.01439 -0.29021,-1.19021 -1.17516,-2.1004 -2.286186,-2.17021 z m -0.731453,3.13097 c 0.440766,-0.008 0.862684,0.17773 1.169066,0.65642 0.478037,0.74689 0.334102,1.58747 0.26918,2.41107 -1.217132,-0.21697 -2.43109,-1.0912 -3.356605,-1.88005 0.395888,-0.62509 1.183749,-1.1746 1.918359,-1.18744 z m 120.185573,6.99132 -8.09846,4.19667 -13.1882,7.08313 -6.28136,3.61844 -1.12291,4.07442 c 7.04502,-2.93312 13.56073,-7.35885 20.36107,-10.81806 3.99402,-2.03168 7.61546,-3.31717 8.32986,-8.1546 z m -56.36337,6.01166 c -0.18272,0.006 -0.35433,0.0403 -0.5116,0.10862 -2.17456,0.94424 -3.80483,5.99423 -4.69883,8.05124 -0.3786,0.87115 -1.09394,2.01817 -0.68685,2.98457 0.82217,1.95166 4.26711,3.54423 5.95395,4.70461 1.39088,0.95676 4.41091,4.03205 6.24149,3.08532 2.15355,-1.11379 6.38438,-8.67124 5.13696,-11.04736 -0.99987,-1.9046 -3.97722,-3.26453 -5.68424,-4.48001 -1.1691,-0.83247 -3.98466,-3.46323 -5.75088,-3.40699 z m -19.557724,3.93484 c -4.368987,3.3566 -7.174164,11.27996 -7.615197,16.6592 -0.159334,1.94338 -0.490002,4.67523 1.186382,6.11555 1.677225,1.44106 4.227731,0.68006 5.734088,-0.61182 2.527195,-2.16739 3.940581,-6.15254 3.284724,-9.43753 -0.325015,-1.62782 -1.110498,-2.99515 -2.361748,-4.09488 -0.639765,-0.56227 -1.927915,-1.11721 -2.216396,-1.96348 -0.71914,-2.10965 2.786972,-4.41426 1.988147,-6.66704 z m 122.938234,1.22888 c -0.17727,-0.006 -0.34374,0.0222 -0.49481,0.0934 -0.62166,0.29312 -0.91779,1.06481 -1.21157,1.63659 -0.68489,1.33301 -3.07517,4.45037 -2.31556,5.987 0.64934,1.3136 2.7601,2.251 3.91909,3.08007 0.9057,0.64788 3.0673,2.81125 4.27905,2.24421 1.49191,-0.69815 4.36009,-5.98674 3.56808,-7.58213 -0.65635,-1.32211 -2.74067,-2.29811 -3.91911,-3.11419 -0.80815,-0.55966 -2.58426,-2.30028 -3.82517,-2.34496 z m -49.68637,2.39481 c -0.19749,-0.007 -0.38234,0.0225 -0.54885,0.0997 -1.70294,0.78884 -2.91794,4.59837 -3.65149,6.22837 -0.29308,0.6512 -0.7559,1.55425 -0.45073,2.27359 0.60965,1.43705 3.29671,2.64169 4.5435,3.50511 1.11951,0.77528 3.35335,3.06092 4.83789,2.30928 1.65312,-0.837 4.87361,-6.49206 3.94691,-8.31045 -0.75743,-1.48623 -3.06683,-2.56631 -4.38873,-3.51192 -0.89031,-0.63688 -2.90602,-2.54102 -4.2885,-2.59367 z m -77.647932,7.94524 c 0.860602,0.19739 1.594899,0.58706 2.313997,1.10715 0.876451,0.63388 2.178299,1.68011 2.359647,2.82613 0.26923,1.70139 -3.02472,3.35596 -4.438046,2.83293 -1.478576,-0.54717 -1.459494,-2.24552 -1.205271,-3.52714 0.22113,-1.11479 0.671891,-2.14812 0.969673,-3.23907 z m -34.502145,0.34264 c -0.274812,0.007 -0.563613,0.0784 -0.86578,0.2293 -1.558031,0.7782 -2.255277,2.75124 -2.779419,4.28955 -1.310315,3.84563 -2.280796,8.4206 -2.31452,12.49401 h -0.4628 c -0.169575,-3.88932 -2.088995,-8.93028 -4.763892,-11.75993 -2.981601,-3.1541 -5.650008,0.198 -5.364691,3.66198 0.146382,1.77721 1.724766,3.11288 3.418521,3.39387 0.845633,0.1403 1.706869,-0.17175 2.321867,0.58296 2.501787,3.07009 2.968263,8.05724 3.925396,11.75677 1.543373,-0.76087 1.787279,-2.59693 2.063183,-4.16467 0.581048,-3.30162 0.954389,-6.70461 1.808693,-9.94913 0.2596,-0.98591 0.663481,-3.50175 1.936725,-3.68822 1.338191,-0.19599 2.339233,2.266 2.752658,3.22543 h 0.462799 c 1.459649,-2.51032 1.841415,-5.20346 0.506351,-7.86707 -0.533592,-1.06457 -1.454238,-2.23513 -2.645091,-2.20485 z m 198.534527,1.22312 c -0.12266,-0.004 -0.23759,0.0147 -0.34211,0.064 -0.43014,0.20282 -0.63522,0.73723 -0.8385,1.13287 -0.4739,0.92234 -2.12754,3.07887 -1.60196,4.1421 0.44929,0.90892 1.90928,1.55774 2.71121,2.13139 0.62667,0.44829 2.12253,1.94552 2.96097,1.55316 1.03229,-0.48306 3.0168,-4.14274 2.46877,-5.24662 -0.45413,-0.91478 -1.89633,-1.58981 -2.71171,-2.15449 -0.5592,-0.38725 -1.78805,-1.59151 -2.64667,-1.62242 z m 11.5747,16.65132 -9.48633,5.09027 -16.1964,9.05605 -6.5474,3.94954 -1.31965,4.57919 c 8.45999,-3.64555 16.44653,-9.14355 24.52572,-13.58069 4.31632,-2.37053 8.23474,-3.74964 9.02406,-9.09436 z m -127.08611,2.41368 c 0.72476,-0.002 1.45184,0.0402 2.17967,0.12961 4.27603,0.52516 8.41427,1.98535 11.0694,5.61917 0.64577,0.88383 1.71679,2.3127 1.69169,3.46733 -0.021,0.96757 -1.19106,1.64391 -1.88636,2.14451 -2.15814,1.55382 -4.54182,2.79219 -6.94146,3.92487 -9.26587,4.37374 -22.80985,7.53916 -32.62419,3.18871 5.26904,-8.53662 15.6399,-18.44716 26.51125,-18.4742 z m 42.9018,0.2566 c 2.88967,0.10103 6.34387,3.45055 7.40426,5.95499 -2.83653,0 -5.73189,0.49493 -8.56074,0.191 -1.13463,-0.12192 -2.63654,-0.47574 -3.19446,-1.5899 -1.10074,-2.19817 2.48159,-4.62149 4.35094,-4.55609 z m -107.674261,18.69509 -9.486333,5.08973 -16.196393,9.05606 -6.547401,3.95007 -1.319136,4.57866 c 8.459998,-3.64556 16.446543,-9.14303 24.525729,-13.58016 4.316317,-2.37053 8.234212,-3.74964 9.023534,-9.09436 z m 94.015381,2.13139 c -0.18776,0.005 -0.38542,0.0532 -0.59188,0.15637 -1.06451,0.5317 -1.54082,1.88001 -1.89894,2.93105 -0.89527,2.6275 -1.55845,5.75348 -1.58149,8.5366 h -0.31589 c -0.11586,-2.65734 -1.42772,-6.10164 -3.25532,-8.03497 -2.03715,-2.155 -3.86008,0.13511 -3.66514,2.50184 0.10001,1.21426 1.17879,2.12674 2.33602,2.31872 0.57777,0.0959 1.16602,-0.11738 1.58622,0.39826 1.70932,2.09762 2.02788,5.5052 2.68183,8.03287 1.0545,-0.51986 1.22139,-1.77438 1.4099,-2.84553 0.39701,-2.25579 0.65201,-4.5809 1.23571,-6.79769 0.17736,-0.67362 0.4534,-2.39229 1.32333,-2.51968 0.9143,-0.13392 1.59811,1.54829 1.88058,2.20381 h 0.31589 c 0.99729,-1.71514 1.25847,-3.55532 0.3463,-5.3752 -0.36456,-0.72735 -0.99348,-1.52715 -1.80712,-1.50645 z m 38.82266,6.2142 c -3.53874,0.11665 -7.98763,4.62093 -7.52337,7.83611 0.29519,2.04431 3.0802,3.30605 4.80325,3.93327 -2.48644,3.52005 -7.10483,6.04797 -10.64334,8.40698 -1.49986,0.99991 -3.6998,2.04716 -4.62747,3.62474 3.94247,-1.28286 7.75966,-3.30616 11.10614,-5.7577 1.86874,-1.36901 3.59018,-3.36382 5.55307,-4.53145 1.52114,-0.90484 3.174,2.05207 4.46532,0.52735 2.10463,-2.48507 -0.68964,-3.13523 -1.05783,-5.06771 -0.13753,-0.72181 0.5937,-1.62296 0.81541,-2.29248 0.69269,-2.09186 1.1059,-5.4317 -1.44716,-6.44404 -0.4514,-0.17898 -0.93849,-0.25173 -1.44402,-0.23507 z m -136.487437,3.84407 c -1.589308,0.003 -2.798505,1.31305 -3.090051,2.983 -0.148759,0.85264 -0.142441,1.7226 -0.02624,2.57951 0.153687,1.13349 0.424802,2.33601 0.896738,3.37811 -1.775295,0.65288 -3.053894,1.99263 -2.485576,3.94639 0.15791,0.54285 0.371623,1.18628 0.96705,1.37843 1.191922,0.38465 2.68136,-1.01185 3.66199,-1.5138 1.150898,2.51795 3.887976,4.69289 5.93086,6.48129 4.152877,3.63557 8.577743,6.83366 13.200793,9.84366 2.489902,1.62116 5.341857,3.59958 8.345603,4.02247 l -5.061934,-3.75435 -9.027729,-6.53061 -8.353472,-6.95929 -3.699245,-3.70765 -0.01102,-0.17105 c 1.438006,-0.88299 3.210992,-1.80141 4.208218,-3.20392 2.037632,-2.86572 -1.635409,-7.55361 -4.301618,-8.55338 -0.40069,-0.15025 -0.787611,-0.21945 -1.154373,-0.21881 z m 135.200837,0.24819 c 1.12578,0.003 2.14907,0.67981 1.88477,2.58685 -0.082,0.59211 -0.28209,1.08984 -0.5415,1.6198 -0.64804,-0.23582 -1.23878,-0.54726 -1.8512,-0.86631 -0.46771,-0.24366 -0.95045,-0.47411 -1.38367,-0.77763 -1.61787,-1.13343 0.24622,-2.5673 1.8916,-2.56271 z m -134.363392,3.70345 c 0.937347,-0.0458 1.987921,0.58799 2.545395,1.35114 -1.11279,1.08372 -2.586152,2.30068 -4.119017,2.68024 -0.152461,-1.04418 -0.406456,-2.10345 0.139574,-3.09582 0.349963,-0.63604 0.871641,-0.90808 1.434048,-0.93556 z" /></svg>
